<?xml version="1.0" encoding="utf-8"?>
<svg id="visual" viewBox="0 0 900 600" width="900" height="600" version="1.1" xmlns="http://www.w3.org/2000/svg">
  <rect x="0" y="0" width="900" height="600" fill="#232830"/>
  <path d="M 0 330 L 21.5 324.3 C 43 318.7 86 307.3 128.8 311 C 171.7 314.7 214.3 333.3 257.2 351.7 C 300 370 343 388 385.8 401.3 C 428.7 414.7 471.3 423.3 514.2 413.7 C 557 404 600 376 642.8 381.7 C 685.7 387.3 728.3 426.7 771.2 427.7 C 814 428.7 857 391.3 878.5 372.7 L 900 354 L 900 645 L 878.5 645 C 857 645 814 645 771.2 645 C 728.3 645 685.7 645 642.8 645 C 600 645 557 645 514.2 645 C 471.3 645 428.7 645 385.8 645 C 343 645 300 645 257.2 645 C 214.3 645 171.7 645 128.8 645 C 86 645 43 645 21.5 645 L 0 645 L 0 330 Z" stroke-linecap="round" stroke-linejoin="miter" style="fill: rgb(255, 255, 255);"/>
  <path d="M 0 335 L 21.5 329.3 C 43 323.7 86 312.3 128.8 316 C 171.7 319.7 214.3 338.3 257.2 356.7 C 300 375 343 393 385.8 406.3 C 428.7 419.7 471.3 428.3 514.2 418.7 C 557 409 600 381 642.8 386.7 C 685.7 392.3 728.3 431.7 771.2 432.7 C 814 433.7 857 396.3 878.5 377.7 L 900 359 L 900 650 L 878.5 650 C 857 650 814 650 771.2 650 C 728.3 650 685.7 650 642.8 650 C 600 650 557 650 514.2 650 C 471.3 650 428.7 650 385.8 650 C 343 650 300 650 257.2 650 C 214.3 650 171.7 650 128.8 650 C 86 650 43 650 21.5 650 L 0 650 L 0 335 Z" fill="#0660E4" stroke-linecap="round" stroke-linejoin="miter"/>
</svg>