<?xml version="1.0" encoding="utf-8"?>
<svg id="visual" viewBox="0 0 900 600" width="900" height="600" version="1.1" xmlns="http://www.w3.org/2000/svg">
  <rect x="0" y="0" width="900" height="600" fill="#232830"/>
  <path d="M 0 290 L 21.5 284.3 C 43 278.7 86 267.3 128.8 271 C 171.7 274.7 214.3 293.3 257.2 311.7 C 300 330 343 348 385.8 361.3 C 428.7 374.7 471.3 383.3 514.2 373.7 C 557 364 600 336 642.8 341.7 C 685.7 347.3 728.3 386.7 771.2 387.7 C 814 388.7 857 351.3 878.5 332.7 L 900 314 L 900 605 L 878.5 605 C 857 605 814 605 771.2 605 C 728.3 605 685.7 605 642.8 605 C 600 605 557 605 514.2 605 C 471.3 605 428.7 605 385.8 605 C 343 605 300 605 257.2 605 C 214.3 605 171.7 605 128.8 605 C 86 605 43 605 21.5 605 L 0 605 L 0 290 Z" stroke-linecap="round" stroke-linejoin="miter" style="fill: rgb(255, 255, 255);"/>
  <path d="M 0 295 L 21.5 289.3 C 43 283.7 86 272.3 128.8 276 C 171.7 279.7 214.3 298.3 257.2 316.7 C 300 335 343 353 385.8 366.3 C 428.7 379.7 471.3 388.3 514.2 378.7 C 557 369 600 341 642.8 346.7 C 685.7 352.3 728.3 391.7 771.2 392.7 C 814 393.7 857 356.3 878.5 337.7 L 900 319 L 900 610 L 878.5 610 C 857 610 814 610 771.2 610 C 728.3 610 685.7 610 642.8 610 C 600 610 557 610 514.2 610 C 471.3 610 428.7 610 385.8 610 C 343 610 300 610 257.2 610 C 214.3 610 171.7 610 128.8 610 C 86 610 43 610 21.5 610 L 0 610 L 0 295 Z" fill="#0660E4" stroke-linecap="round" stroke-linejoin="miter"/>
</svg>